<?xml version="1.0" encoding="UTF-8" standalone="no"?>
<!-- Created with Inkscape (http://www.inkscape.org/) -->

<svg
   width="98.602722mm"
   height="100.17667mm"
   viewBox="0 0 98.602722 100.17667"
   version="1.1"
   id="svg5"
   xml:space="preserve"
   inkscape:export-filename="huawei_logo.svg"
   inkscape:export-xdpi="96"
   inkscape:export-ydpi="96"
   xmlns:inkscape="http://www.inkscape.org/namespaces/inkscape"
   xmlns:sodipodi="http://sodipodi.sourceforge.net/DTD/sodipodi-0.dtd"
   xmlns="http://www.w3.org/2000/svg"
   xmlns:svg="http://www.w3.org/2000/svg"><sodipodi:namedview
     id="namedview7"
     pagecolor="#ffffff"
     bordercolor="#000000"
     borderopacity="0.25"
     inkscape:showpageshadow="2"
     inkscape:pageopacity="0.0"
     inkscape:pagecheckerboard="0"
     inkscape:deskcolor="#d1d1d1"
     inkscape:document-units="mm"
     showgrid="false" /><defs
     id="defs2"><clipPath
       clipPathUnits="userSpaceOnUse"
       id="clipPath1534"><rect
         style="fill:none;fill-opacity:0.124777;stroke-width:1.133;stroke-linejoin:round;stroke-miterlimit:72;paint-order:stroke markers fill"
         id="rect1536"
         width="116.27831"
         height="28.719336"
         x="53.235847"
         y="162.85965" /></clipPath><clipPath
       clipPathUnits="userSpaceOnUse"
       id="clipPath1542"><rect
         style="fill:none;fill-opacity:0.167558;stroke-width:0.901496;stroke-linejoin:round;stroke-miterlimit:72;paint-order:stroke markers fill"
         id="rect1544"
         width="102.6191"
         height="79.153297"
         x="39.226418"
         y="48.682785" /></clipPath></defs><g
     inkscape:label="Capa 1"
     inkscape:groupmode="layer"
     id="layer1"
     transform="translate(-46.106298,-78.914175)"><g
       id="g1710"><path
         style="fill:#fffff8;fill-opacity:1;stroke-width:0.0489204"
         d="m 56.976159,176.87377 v -8.1697 h 1.663292 1.663293 v 3.30212 3.30212 h 3.766869 3.766869 v -3.30212 -3.30212 h 1.663292 1.663293 v 8.1697 8.1697 h -1.662951 -1.66295 l -0.01257,-3.31436 -0.01257,-3.31435 h -3.742413 -3.742409 l -0.01257,3.31435 -0.01257,3.31436 h -1.662951 -1.66295 z m 23.030316,8.02307 c -0.854386,-0.28935 -1.581608,-0.72198 -2.196583,-1.30677 -1.199378,-1.14052 -1.841531,-2.65459 -1.997857,-4.71057 -0.02945,-0.38739 -0.05026,-2.62726 -0.05033,-5.41793 l -1.19e-4,-4.7575 h 1.663293 1.663293 l 1.46e-4,4.83088 c 9.8e-5,3.22155 0.01811,4.97756 0.05409,5.27117 0.267605,2.1837 1.560377,3.35031 3.712637,3.35031 1.76545,0 2.968421,-0.79156 3.468289,-2.28214 0.243837,-0.72711 0.249252,-0.86153 0.249463,-6.19258 l 1.88e-4,-4.97764 h 1.663293 1.663292 l -1.46e-4,4.85534 c -9.8e-5,3.04885 -0.01955,5.06466 -0.05228,5.41793 -0.246277,2.6589 -1.402907,4.55727 -3.386855,5.55881 -0.236881,0.11959 -0.625377,0.28265 -0.863322,0.36237 l -0.432628,0.14495 -2.365422,-0.001 -2.365423,-0.001 -0.427002,-0.14461 z m 11.772423,-0.23188 c 0.183722,-0.42557 6.881215,-15.6156 6.978065,-15.82636 l 0.0618,-0.13453 h 1.462827 1.46282 l 0.14238,0.31401 c 0.16577,0.36558 6.63316,15.08232 6.87615,15.64687 l 0.16345,0.37975 -1.74097,-0.0129 -1.74096,-0.0128 -0.71705,-1.6633 -0.71705,-1.66329 -3.76726,-0.0125 -3.767257,-0.0125 -0.73581,1.67583 -0.73582,1.67582 -1.69464,0.0129 -1.69464,0.0129 z m 10.723492,-6.58042 c -0.98355,-2.30368 -2.25734,-5.22214 -2.27904,-5.2216 -0.0186,4.9e-4 -2.342567,5.39694 -2.488367,5.77823 -0.009,0.0239 1.09087,0.0427 2.503477,0.0427 h 2.51978 z m 10.87711,6.83177 c -0.15133,-0.39803 -5.624,-16.13056 -5.624,-16.16757 0,-0.0261 0.72624,-0.0446 1.74891,-0.0444 h 1.7489 l 1.80763,5.62646 c 0.99419,3.09456 1.82146,5.59856 1.83837,5.56445 0.0169,-0.0341 0.85454,-2.56593 1.8614,-5.62627 l 1.83066,-5.56427 1.36703,0.0118 1.36703,0.0118 1.8186,5.51268 c 1.00023,3.03197 1.83398,5.55259 1.85277,5.60138 0.029,0.0752 0.04,0.0776 0.0724,0.0153 0.021,-0.0404 0.83954,-2.56632 1.81899,-5.61323 l 1.78082,-5.53986 1.72152,-4.9e-4 1.72151,-4.8e-4 -0.18593,0.52589 c -0.10227,0.28924 -1.3815,3.96561 -2.84275,8.1697 l -2.65682,7.64381 -1.39816,-5.4e-4 -1.39816,-4.9e-4 -1.82919,-5.29512 c -1.00605,-2.91231 -1.84439,-5.32428 -1.86297,-5.35992 -0.0386,-0.074 0.0753,-0.39407 -2.10797,5.92221 l -1.63577,4.73224 -1.38322,7.8e-4 -1.3832,7.9e-4 -0.0483,-0.12716 z m 21.42897,-8.04254 v -8.1697 h 6.01721 6.0172 v 1.49207 1.49207 h -4.37837 -4.37837 v 1.68775 1.68775 h 3.03306 3.03306 v 1.46761 1.46761 h -3.03306 -3.03306 v 2.05466 2.05465 h 4.54959 4.5496 v 1.46762 1.46761 h -6.18843 -6.18843 z m 16.33941,0 v -8.1697 h 1.63883 1.63883 v 8.1697 8.1697 h -1.63883 -1.63883 z M 76.73999,159.20849 c -3.786128,-0.42567 -7.539403,-3.12921 -10.519883,-7.57763 -0.410635,-0.61288 -0.982155,-1.57601 -0.952688,-1.60548 0.01284,-0.0128 5.224619,-0.20573 11.581717,-0.42864 6.3571,-0.22291 13.178695,-0.46281 15.159102,-0.5331 2.801855,-0.0994 3.628725,-0.11506 3.726875,-0.0703 0.0694,0.0316 0.15225,0.12053 0.18417,0.1976 0.10587,0.25559 0.10207,0.2588 -2.22838,1.87786 -5.704247,3.96298 -10.637713,6.85165 -13.192686,7.72466 -1.173023,0.40081 -2.541149,0.55191 -3.758227,0.41507 z m 55.67138,0.025 c -0.0673,-0.0116 -0.25438,-0.044 -0.41582,-0.072 -2.3106,-0.40029 -7.39443,-3.23047 -14.04015,-7.81617 -1.76795,-1.21994 -2.52431,-1.77532 -2.5779,-1.89294 -0.0285,-0.0625 -0.0372,-0.1717 -0.0193,-0.24273 0.0658,-0.26226 0.0667,-0.2623 3.47781,-0.14143 6.18734,0.21925 8.98333,0.31655 17.39119,0.60525 4.69513,0.16121 8.82782,0.30984 9.18374,0.33028 l 0.64712,0.0372 -0.38013,0.6115 c -2.7149,4.36741 -5.70391,7.02876 -9.13951,8.13764 -1.07579,0.34723 -1.61931,0.43202 -2.87954,0.44921 -0.61884,0.008 -1.1802,0.006 -1.24747,-0.006 z m -58.484302,-12.5429 c -1.352576,-0.0368 -2.017429,-0.10836 -3.253205,-0.35001 -4.843302,-0.94707 -9.023226,-3.86315 -11.753778,-8.1999 -0.461184,-0.73247 -1.246152,-2.31215 -1.520875,-3.06063 -1.048079,-2.85547 -1.38102,-5.93903 -0.956999,-8.86332 0.157337,-1.08509 0.553348,-2.7929 0.678427,-2.92574 0.06251,-0.0664 7.598967,4.04909 13.895668,7.58809 7.668951,4.31025 14.263542,8.17546 19.323548,11.32586 2.729839,1.69962 5.868299,3.74287 6.008309,3.91164 0.10018,0.12074 0.0521,0.37921 -0.0889,0.47851 -0.11558,0.0814 -0.69831,0.0873 -10.591265,0.10811 -5.757928,0.0121 -11.041328,0.006 -11.74089,-0.0126 z m 41.129402,-0.0474 c -0.0608,-0.0265 -0.1351,-0.10227 -0.1652,-0.16834 -0.12001,-0.26341 -0.0514,-0.33215 1.09605,-1.09817 7.48667,-4.99795 21.01083,-12.8788 37.31305,-21.74319 l 0.85611,-0.46551 0.11038,0.35031 c 0.16896,0.53621 0.38805,1.4607 0.49899,2.10555 0.0916,0.53264 0.1,0.78584 0.1,3.03307 -1e-5,2.73245 -0.0149,2.90936 -0.37016,4.38331 -0.32924,1.3662 -0.67881,2.34789 -1.24597,3.49898 -1.69175,3.43356 -4.28376,6.15377 -7.6249,8.00205 -1.82038,1.00702 -4.59257,1.83389 -6.87822,2.0516 -0.72825,0.0694 -23.53549,0.11784 -23.69009,0.0503 z m -18.479267,-4.5678 c -1.89935,-0.9638 -2.30885,-1.17662 -4.231614,-2.19927 -10.066641,-5.35404 -17.673526,-10.15918 -22.307691,-14.09139 -2.372492,-2.01312 -3.637665,-3.38653 -4.671804,-5.07149 -1.72744,-2.81458 -2.395361,-6.25521 -1.828129,-9.41717 0.617458,-3.44193 2.628032,-7.2963 5.754431,-11.03154 0.667114,-0.797032 1.9565,-2.206682 2.044653,-2.235362 0.07728,-0.0251 1.477257,1.74771 3.329749,4.216632 7.346297,9.79082 14.29785,20.82135 19.916255,31.60256 1.78357,3.42251 4.26895,8.57531 4.26895,8.85057 0,0.15608 -0.15846,0.32237 -0.30576,0.32088 -0.0605,-6.4e-4 -0.94661,-0.4256 -1.96904,-0.94442 z m 15.972497,0.79877 c -0.0538,-0.0538 -0.0978,-0.15126 -0.0978,-0.21657 0,-0.2132 1.86138,-4.12982 3.37287,-7.09702 3.46699,-6.80603 7.28534,-13.41987 11.63617,-20.15519 3.76744,-5.8322 8.10017,-11.93041 11.68786,-16.450352 0.73704,-0.92857 0.74987,-0.9415 0.86125,-0.86852 0.0622,0.0408 0.37122,0.34857 0.68674,0.68405 1.78712,1.900182 3.14715,3.670872 4.32253,5.627742 1.62188,2.70023 2.53812,5.20107 2.83186,7.72941 0.0978,0.84196 0.0694,2.65165 -0.0541,3.44889 -0.38621,2.49224 -1.38453,4.6966 -3.10177,6.84885 -0.6339,0.79449 -2.10318,2.22133 -3.52856,3.42666 -5.33622,4.5124 -14.42121,10.07042 -26.81348,16.40398 -1.46419,0.74833 -1.6199,0.80169 -1.80351,0.61807 z m -4.03763,-2.39472 c -0.0547,-0.0222 -0.12842,-0.0751 -0.16372,-0.11769 -0.15105,-0.182 -0.71721,-6.95959 -0.9834,-11.77233 -0.35803,-6.47343 -0.38412,-13.25664 -0.0725,-18.8588 0.43571,-7.83384 1.53896,-14.560512 3.223,-19.651122 0.62932,-1.90235 1.49929,-3.88381 2.12817,-4.84715 l 0.23674,-0.36265 0.43396,0.0668 c 1.63983,0.25243 4.08296,0.77159 5.15314,1.09503 1.7134,0.51785 3.35924,1.39327 4.70827,2.50431 0.6495,0.53492 1.71903,1.63863 2.20773,2.27827 1.03528,1.35505 1.84398,2.9038 2.34772,4.49616 0.40037,1.26561 0.53593,2.26055 0.53838,3.95139 0.003,2.101212 -0.24429,3.980992 -0.82392,6.261802 -1.79496,7.063 -7.30769,17.78272 -15.85273,30.82627 -1.21652,1.85696 -2.67428,3.98213 -2.79863,4.07995 -0.13532,0.10644 -0.14021,0.1073 -0.28217,0.0498 z m -6.17607,-0.18582 c -0.20286,-0.25784 -2.08819,-3.06702 -3.078017,-4.58629 -7.151459,-10.97672 -12.20857,-20.46417 -14.569308,-27.33297 -0.354323,-1.03093 -0.745015,-2.3751 -1.020607,-3.51137 -0.512888,-2.11464 -0.666161,-3.31488 -0.666229,-5.217062 -4.4e-5,-1.21448 0.04234,-1.7961 0.200349,-2.74928 0.67939,-4.0984 3.458498,-7.91996 7.187005,-9.88287 0.721415,-0.3798 1.422634,-0.67273 2.277997,-0.95162 0.922773,-0.30088 3.913533,-0.94042 5.272943,-1.12757 l 0.48237,-0.0664 0.21582,0.33363 c 0.30092,0.46518 0.74421,1.32275 1.07223,2.07431 2.235157,5.12117 3.716157,12.830492 4.252527,22.136462 0.15416,2.67474 0.18003,3.59432 0.20645,7.33806 0.0534,7.56845 -0.23053,13.38329 -1.11628,22.86135 -0.0677,0.7242 -0.13433,0.86503 -0.40937,0.86503 -0.13073,0 -0.19252,-0.0368 -0.30788,-0.18345 z"
         id="path302"
         clip-path="url(#clipPath1534)"
         transform="translate(-10.15684,-5.9540097)" /><path
         style="fill:#ff0000;fill-opacity:1;stroke-width:0.0489204"
         d="m 41.565781,142.90088 v -8.1697 h 1.66329 1.6633 v 3.30212 3.30212 h 3.76686 3.76687 v -3.30212 -3.30212 h 1.6633 1.66329 v 8.1697 8.1697 h -1.66295 -1.66295 l -0.0126,-3.31436 -0.0126,-3.31435 h -3.74242 -3.7424 l -0.0126,3.31435 -0.0126,3.31436 h -1.66296 -1.66295 z m 23.03032,8.02307 c -0.85439,-0.28935 -1.58161,-0.72198 -2.19659,-1.30677 -1.19937,-1.14052 -1.84153,-2.65459 -1.99785,-4.71057 -0.0294,-0.38739 -0.0503,-2.62726 -0.0503,-5.41793 l -1.2e-4,-4.7575 h 1.66329 1.66329 l 1.5e-4,4.83088 c 1e-4,3.22155 0.0181,4.97756 0.0541,5.27117 0.2676,2.1837 1.56038,3.35031 3.71264,3.35031 1.76545,0 2.96842,-0.79156 3.46829,-2.28214 0.24383,-0.72711 0.24925,-0.86153 0.24946,-6.19258 l 1.9e-4,-4.97764 h 1.663295 1.66329 l -1.4e-4,4.85534 c -1e-4,3.04885 -0.0196,5.06466 -0.0523,5.41793 -0.24628,2.6589 -1.40291,4.55727 -3.386865,5.55881 -0.23688,0.11959 -0.62538,0.28265 -0.86332,0.36237 l -0.43263,0.14495 -2.36542,-0.001 -2.36542,-0.001 -0.42701,-0.14461 z m 11.772425,-0.23188 c 0.18372,-0.42557 6.88121,-15.6156 6.97806,-15.82636 l 0.0618,-0.13453 h 1.46283 1.462822 l 0.14238,0.31401 c 0.16577,0.36558 6.63316,15.08232 6.87615,15.64687 l 0.16345,0.37975 -1.74097,-0.0129 -1.74096,-0.0128 -0.71705,-1.6633 -0.71705,-1.66329 -3.767262,-0.0125 -3.76726,-0.0125 -0.73581,1.67583 -0.73582,1.67582 -1.69464,0.0129 -1.69464,0.0129 z m 10.723492,-6.58042 c -0.98355,-2.30368 -2.257342,-5.22214 -2.279042,-5.2216 -0.0186,4.9e-4 -2.34257,5.39694 -2.48837,5.77823 -0.009,0.0239 1.09087,0.0427 2.50348,0.0427 h 2.519782 z m 10.87711,6.83177 c -0.15133,-0.39803 -5.624,-16.13056 -5.624,-16.16757 0,-0.0261 0.72624,-0.0446 1.74891,-0.0444 h 1.7489 l 1.80763,5.62646 c 0.99419,3.09456 1.82146,5.59856 1.83837,5.56445 0.0169,-0.0341 0.854542,-2.56593 1.861402,-5.62627 l 1.83066,-5.56427 1.36703,0.0118 1.36703,0.0118 1.8186,5.51268 c 1.00023,3.03197 1.83398,5.55259 1.85277,5.60138 0.029,0.0752 0.04,0.0776 0.0724,0.0153 0.021,-0.0404 0.83954,-2.56632 1.81899,-5.61323 l 1.78082,-5.53986 1.72152,-4.9e-4 1.72151,-4.8e-4 -0.18593,0.52589 c -0.10227,0.28924 -1.3815,3.96561 -2.84275,8.1697 l -2.65682,7.64381 -1.39816,-5.4e-4 -1.39816,-4.9e-4 -1.82919,-5.29512 c -1.00605,-2.91231 -1.84439,-5.32428 -1.86297,-5.35992 -0.0386,-0.074 0.0753,-0.39407 -2.10797,5.92221 l -1.63577,4.73224 -1.383222,7.8e-4 -1.3832,7.9e-4 -0.0483,-0.12716 z m 21.428972,-8.04254 v -8.1697 h 6.01721 6.0172 v 1.49207 1.49207 h -4.37837 -4.37837 v 1.68775 1.68775 h 3.03306 3.03306 v 1.46761 1.46761 h -3.03306 -3.03306 v 2.05466 2.05465 h 4.54959 4.5496 v 1.46762 1.46761 h -6.18843 -6.18843 z m 16.33941,0 v -8.1697 h 1.63883 1.63883 v 8.1697 8.1697 h -1.63883 -1.63883 z M 61.329611,125.2356 c -3.78613,-0.42567 -7.5394,-3.12921 -10.51988,-7.57763 -0.41064,-0.61288 -0.98216,-1.57601 -0.95269,-1.60548 0.0128,-0.0128 5.22462,-0.20573 11.58172,-0.42864 6.3571,-0.22291 13.178695,-0.46281 15.159105,-0.5331 2.80185,-0.0994 3.62872,-0.11506 3.72687,-0.0703 0.0694,0.0316 0.15225,0.12053 0.18417,0.1976 0.10587,0.25559 0.10207,0.2588 -2.22838,1.87786 -5.70424,3.96298 -10.637715,6.85165 -13.192685,7.72466 -1.17302,0.40081 -2.54115,0.55191 -3.75823,0.41507 z m 55.671389,0.025 c -0.0673,-0.0116 -0.25438,-0.044 -0.41582,-0.072 -2.3106,-0.40029 -7.39443,-3.23047 -14.04015,-7.81617 -1.76795,-1.21994 -2.52431,-1.77532 -2.577902,-1.89294 -0.0285,-0.0625 -0.0372,-0.1717 -0.0193,-0.24273 0.0658,-0.26226 0.0667,-0.2623 3.477812,-0.14143 6.18734,0.21925 8.98333,0.31655 17.39119,0.60525 4.69513,0.16121 8.82782,0.30984 9.18374,0.33028 l 0.64712,0.0372 -0.38013,0.6115 c -2.7149,4.36741 -5.70391,7.02876 -9.13951,8.13764 -1.07579,0.34723 -1.61931,0.43202 -2.87954,0.44921 -0.61884,0.008 -1.1802,0.006 -1.24747,-0.006 z M 58.516691,112.7177 c -1.35258,-0.0368 -2.01743,-0.10836 -3.25321,-0.35001 -4.8433,-0.94707 -9.02322,-3.86315 -11.75377,-8.1999 -0.46119,-0.73247 -1.24616,-2.31215 -1.52088,-3.06063 -1.04808,-2.855457 -1.38102,-5.939017 -0.957,-8.863307 0.15734,-1.08509 0.55335,-2.7929 0.67843,-2.92574 0.0625,-0.0664 7.59897,4.04909 13.89567,7.58809 7.66895,4.310237 14.26354,8.175447 19.323555,11.325847 2.72983,1.69962 5.86829,3.74287 6.0083,3.91164 0.10018,0.12074 0.0521,0.37921 -0.0889,0.47851 -0.11558,0.0814 -0.69831,0.0873 -10.591265,0.10811 -5.75793,0.0121 -11.04133,0.006 -11.74089,-0.0126 z m 41.129407,-0.0474 c -0.0608,-0.0265 -0.1351,-0.10227 -0.1652,-0.16834 -0.12001,-0.26341 -0.0514,-0.33215 1.096052,-1.09817 7.48667,-4.99795 21.01083,-12.878787 37.31305,-21.743177 l 0.85611,-0.46551 0.11038,0.35031 c 0.16896,0.53621 0.38805,1.4607 0.49899,2.10555 0.0916,0.53264 0.1,0.78584 0.1,3.03307 -1e-5,2.73245 -0.0149,2.90936 -0.37016,4.38331 -0.32924,1.366197 -0.67881,2.347877 -1.24597,3.498967 -1.69175,3.43356 -4.28376,6.15377 -7.6249,8.00205 -1.82038,1.00702 -4.59257,1.83389 -6.87822,2.0516 -0.72825,0.0694 -23.535492,0.11784 -23.690092,0.0503 z m -18.479272,-4.5678 c -1.89935,-0.9638 -2.30885,-1.17662 -4.23161,-2.19927 C 66.868571,100.5492 59.261681,95.744063 54.627521,91.811853 c -2.37249,-2.01312 -3.63767,-3.38653 -4.6718,-5.07149 -1.72744,-2.81458 -2.39537,-6.25521 -1.82813,-9.41717 0.61745,-3.44193 2.62803,-7.2963 5.75443,-11.03154 0.66711,-0.797032 1.9565,-2.206682 2.04465,-2.235362 0.0773,-0.0251 1.47726,1.74771 3.32975,4.216632 7.3463,9.79082 14.297855,20.82135 19.916255,31.60256 1.78357,3.422497 4.26895,8.575297 4.26895,8.850557 0,0.15608 -0.15846,0.32237 -0.30576,0.32088 -0.0605,-6.4e-4 -0.94661,-0.4256 -1.96904,-0.94442 z m 15.972502,0.79877 c -0.0538,-0.0538 -0.0978,-0.15126 -0.0978,-0.21657 0,-0.2132 1.86138,-4.12982 3.372872,-7.09702 3.46699,-6.806017 7.28534,-13.419857 11.63617,-20.155177 3.76744,-5.8322 8.10017,-11.93041 11.68786,-16.450352 0.73704,-0.92857 0.74987,-0.9415 0.86125,-0.86852 0.0622,0.0408 0.37122,0.34857 0.68674,0.68405 1.78712,1.900182 3.14715,3.670872 4.32253,5.627742 1.62188,2.70023 2.53812,5.20107 2.83186,7.72941 0.0978,0.84196 0.0694,2.65165 -0.0541,3.44889 -0.38621,2.49224 -1.38453,4.6966 -3.10177,6.84885 -0.6339,0.79449 -2.10318,2.22133 -3.52856,3.42666 -5.33622,4.5124 -14.42121,10.070407 -26.813482,16.403967 -1.46419,0.74833 -1.6199,0.80169 -1.80351,0.61807 z m -4.03763,-2.39472 c -0.0547,-0.0222 -0.12842,-0.0751 -0.16372,-0.11769 -0.15105,-0.182 -0.71721,-6.959577 -0.9834,-11.772317 -0.35803,-6.47343 -0.38412,-13.25664 -0.0725,-18.8588 0.43571,-7.83384 1.53896,-14.560512 3.223,-19.651122 0.62932,-1.90235 1.49929,-3.88381 2.12817,-4.84715 l 0.23674,-0.36265 0.43396,0.0668 c 1.63983,0.25243 4.082962,0.77159 5.153142,1.09503 1.7134,0.51785 3.35924,1.39327 4.70827,2.50431 0.6495,0.53492 1.71903,1.63863 2.20773,2.27827 1.03528,1.35505 1.84398,2.9038 2.34772,4.49616 0.40037,1.26561 0.53593,2.26055 0.53838,3.95139 0.003,2.101212 -0.24429,3.980992 -0.82392,6.261802 -1.79496,7.063 -7.30769,17.78272 -15.852732,30.826257 -1.21652,1.85696 -2.67428,3.98213 -2.79863,4.07995 -0.13532,0.10644 -0.14021,0.1073 -0.28217,0.0498 z m -6.17607,-0.18582 c -0.20286,-0.25784 -2.088192,-3.06702 -3.078022,-4.58629 -7.15145,-10.976707 -12.20857,-20.464157 -14.569305,-27.332957 -0.35433,-1.03093 -0.74502,-2.3751 -1.02061,-3.51137 -0.51289,-2.11464 -0.66616,-3.31488 -0.66623,-5.217062 -4e-5,-1.21448 0.0423,-1.7961 0.20035,-2.74928 0.67939,-4.0984 3.4585,-7.91996 7.187005,-9.88287 0.72142,-0.3798 1.42264,-0.67273 2.278,-0.95162 0.92277,-0.30088 3.91353,-0.94042 5.27294,-1.12757 l 0.48237,-0.0664 0.21582,0.33363 c 0.30092,0.46518 0.74421,1.32275 1.07223,2.07431 2.235162,5.12117 3.716162,12.830492 4.252532,22.136462 0.15416,2.67474 0.18003,3.59432 0.20645,7.33806 0.0534,7.56845 -0.23053,13.38329 -1.11628,22.861337 -0.0677,0.7242 -0.13433,0.86503 -0.40937,0.86503 -0.13073,0 -0.19252,-0.0368 -0.30788,-0.18345 z"
         id="path1532"
         clip-path="url(#clipPath1542)"
         transform="translate(5.2535375,28.018868)" /></g></g></svg>
