<?xml version="1.0" encoding="UTF-8" standalone="no"?>
<!-- Created with Inkscape (http://www.inkscape.org/) -->

<svg
   width="128.73753mm"
   height="29.026001mm"
   viewBox="0 0 128.73753 29.026001"
   version="1.1"
   id="svg5"
   xml:space="preserve"
   inkscape:export-filename="huawei_logo1.svg"
   inkscape:export-xdpi="96"
   inkscape:export-ydpi="96"
   xmlns:inkscape="http://www.inkscape.org/namespaces/inkscape"
   xmlns:sodipodi="http://sodipodi.sourceforge.net/DTD/sodipodi-0.dtd"
   xmlns="http://www.w3.org/2000/svg"
   xmlns:svg="http://www.w3.org/2000/svg"><sodipodi:namedview
     id="namedview7"
     pagecolor="#ffffff"
     bordercolor="#000000"
     borderopacity="0.25"
     inkscape:showpageshadow="2"
     inkscape:pageopacity="0.0"
     inkscape:pagecheckerboard="0"
     inkscape:deskcolor="#d1d1d1"
     inkscape:document-units="mm"
     showgrid="false" /><defs
     id="defs2"><clipPath
       clipPathUnits="userSpaceOnUse"
       id="clipPath2174"><rect
         style="fill:none;fill-opacity:0.0735294;stroke-width:1.133;stroke-linejoin:round;stroke-miterlimit:72;paint-order:stroke markers fill"
         id="rect2176"
         width="86.158012"
         height="25.041864"
         x="100.6928"
         y="98.24115" /></clipPath><clipPath
       clipPathUnits="userSpaceOnUse"
       id="clipPath2824"><rect
         style="fill:none;fill-opacity:0.247549;stroke-width:1.133;stroke-linejoin:round;stroke-miterlimit:72;paint-order:stroke markers fill"
         id="rect2826"
         width="47.80719"
         height="33.972878"
         x="36.249409"
         y="121.35672" /></clipPath></defs><g
     inkscape:label="Capa 1"
     inkscape:groupmode="layer"
     id="layer1"
     transform="translate(-55.505021,-71.936224)"><g
       id="g2830"><path
         style="fill:#000000;fill-opacity:1;stroke-width:0.151354"
         d="m 62.883224,125.75346 c -1.265125,-0.41145 -2.412598,-1.30227 -3.291597,-2.55537 l -0.637921,-0.90942 2.381472,-0.10153 c 6.423623,-0.27388 9.354101,-0.35182 9.45887,-0.25158 0.15544,0.14873 -3.788715,2.75151 -5.09334,3.36114 -1.070438,0.5002 -2.147195,0.67476 -2.817484,0.45676 z m 21.166698,-0.21673 c -1.074164,-0.4534 -1.915281,-0.9421 -3.861839,-2.2438 -1.420021,-0.94959 -1.829499,-1.28992 -1.691737,-1.40605 0.05223,-0.044 4.29512,0.0924 9.246107,0.29722 l 2.533539,0.10483 -0.263229,0.46426 c -0.442387,0.78025 -2.038358,2.30231 -2.791669,2.6624 -1.083282,0.51782 -2.136117,0.55804 -3.171172,0.12114 z m -23.753184,-4.93175 c -1.661415,-0.53154 -3.26434,-1.91325 -4.084418,-3.52074 -0.482787,-0.94634 -0.784578,-2.51338 -0.694926,-3.60837 0.156406,-1.91033 -0.143217,-1.93235 3.813289,0.2803 5.819487,3.25451 11.423507,6.61667 11.656217,6.9932 0.0547,0.0885 -1.800529,0.13975 -4.877491,0.13471 -4.340781,-0.007 -5.072366,-0.0422 -5.812671,-0.2791 z m 17.941083,0.15014 c 0.23854,-0.38596 9.439626,-5.85638 13.739364,-8.16861 l 1.47088,-0.79098 0.118337,0.42395 c 0.06509,0.23317 0.112917,1.07098 0.106292,1.86181 -0.0092,1.09832 -0.09023,1.63814 -0.343137,2.286 -0.774968,1.98521 -2.481923,3.6383 -4.35388,4.21649 -0.91785,0.2835 -1.395782,0.30844 -5.910591,0.30844 -2.895581,0 -4.877211,-0.0563 -4.827265,-0.1371 z m -8.769719,-2.45818 c -4.496105,-2.4335 -7.287814,-4.25545 -9.117343,-5.95026 -2.81605,-2.60867 -2.80657,-5.65465 0.02888,-9.27847 0.471331,-0.60238 0.88464,-1.09524 0.918466,-1.09524 0.126544,0 2.351885,3.03286 3.770814,5.13914 2.01537,2.99165 3.645612,5.75853 5.407506,9.17774 1.426045,2.76744 1.62798,3.24281 1.375506,3.23803 -0.06243,-10e-4 -1.135155,-0.5551 -2.383825,-1.23094 z m 7.880355,0.89254 c 0.309728,-0.99485 2.948681,-5.92372 4.720352,-8.81636 1.159792,-1.89363 3.837102,-5.81816 4.941179,-7.24304 l 0.921209,-1.18887 0.561493,0.63273 c 0.820241,0.92429 1.609743,2.16408 2.057183,3.23048 0.314762,0.75018 0.394569,1.19246 0.401655,2.22589 0.0079,1.15924 -0.041,1.39093 -0.483917,2.29062 -0.847303,1.72112 -3.213372,3.66866 -7.506563,6.17875 -2.153266,1.25895 -5.432093,3.03035 -5.609101,3.03035 -0.06023,0 -0.0618,-0.15324 -0.0035,-0.34055 z m -4.986483,-2.19463 c -2.787928,-4.30037 -5.017995,-8.50263 -5.880451,-11.0809 -0.428804,-1.28189 -0.483563,-1.63866 -0.488736,-3.18421 -0.0053,-1.59176 0.02917,-1.81183 0.403514,-2.57404 0.814229,-1.65786 2.129234,-2.622675 4.203595,-3.084162 l 1.131793,-0.251792 0.260803,0.34414 c 0.817871,1.079214 1.671052,5.039804 1.955673,9.078524 0.252378,3.58119 -0.09864,12.22814 -0.496397,12.22814 -0.0732,0 -0.563612,-0.66407 -1.089794,-1.4757 z m 3.112153,-0.60542 c -0.561253,-6.71147 -0.249305,-13.08037 0.823554,-16.814122 0.278243,-0.968338 1.049391,-2.748375 1.190651,-2.748375 0.427938,0 2.40974,0.561219 2.959842,0.838187 0.880134,0.443133 1.889276,1.452604 2.338663,2.33942 1.124142,2.21839 0.696414,4.85289 -1.524045,9.38706 -1.498702,3.06033 -5.140118,9.07895 -5.493,9.07895 -0.0669,0 -0.199946,-0.9365 -0.295665,-2.08112 z m 47.270573,1.68474 c -1.91143,-0.17069 -3.28124,-0.7185 -4.18001,-1.67166 -0.9153,-0.97069 -0.94035,-1.13484 -1.00662,-6.59697 l -0.0601,-4.95685 h 1.52607 1.52607 v 4.58423 c 0,4.45561 0.01,4.60293 0.34055,5.25078 0.49332,0.96558 1.18824,1.2787 2.83788,1.2787 1.64965,0 2.34458,-0.31312 2.83789,-1.2787 0.33099,-0.64785 0.34055,-0.79517 0.34055,-5.25078 v -4.58423 h 1.52453 1.52454 l -0.0504,4.95685 c -0.0557,5.48254 -0.08,5.63283 -1.07662,6.67309 -1.11397,1.1627 -3.60779,1.81668 -6.08433,1.59554 z m -20.2562,-0.15858 c -0.0555,-0.0555 -0.10091,-3.01825 -0.10091,-6.5839 v -6.483 h 1.51354 1.51354 v 2.6487 2.64869 h 3.32979 3.32979 v -2.64869 -2.6487 h 1.51515 1.51515 l -0.0395,6.54606 -0.0395,6.54606 h -1.43786 -1.43786 l -0.0412,-2.7622 -0.0412,-2.76222 h -3.32637 -3.32638 v 2.80005 2.80005 h -1.41263 c -0.77695,0 -1.45805,-0.0454 -1.51354,-0.1009 z m 28.07616,-0.0224 c 0.0277,-0.0678 1.3751,-3.03059 2.99411,-6.5839 l 2.94366,-6.46056 h 1.61485 1.61484 l 2.9158,6.31903 c 1.60369,3.47546 2.94937,6.44061 2.9904,6.58921 0.0688,0.24903 -0.0522,0.26681 -1.54591,0.22703 l -1.62052,-0.0431 -0.64573,-1.51354 -0.64574,-1.51354 h -3.14242 -3.14243 l -0.55101,1.36357 c -0.30306,0.74996 -0.60612,1.44808 -0.67346,1.55138 -0.13863,0.21263 -3.19297,0.27602 -3.10644,0.0645 z m 9.49191,-5.56064 c 0.0468,-0.0459 -1.89724,-4.73323 -2.02312,-4.87799 -0.0365,-0.0421 -2.04527,4.74946 -2.04527,4.87866 0,0.19253 3.87195,0.19189 4.06839,-5.7e-4 z m 8.5695,5.49478 c -0.0365,-0.10405 -1.09004,-3.04086 -2.34123,-6.52622 -1.2512,-3.48537 -2.2749,-6.36299 -2.2749,-6.39471 0,-0.0318 0.70872,-0.0577 1.57493,-0.0577 h 1.57493 l 1.3156,4.04286 c 0.72357,2.22356 1.45481,4.4882 1.62497,5.03251 0.17387,0.55622 0.34508,0.89023 0.39088,0.76264 0.0448,-0.12487 0.67095,-2.37247 1.39138,-4.99468 l 1.30988,-4.76765 h 1.79715 1.79715 l 1.53955,4.88829 c 0.84675,2.68856 1.56877,4.91751 1.60449,4.95323 0.0357,0.0357 0.74048,-2.18105 1.56614,-4.92613 l 1.5012,-4.99107 h 1.47904 c 1.08842,0 1.47601,0.05 1.4676,0.18919 -0.006,0.10406 -0.97684,3.04979 -2.15679,6.54606 l -2.14536,6.35687 h -1.81087 -1.81086 l -1.45128,-4.69197 c -0.7982,-2.58059 -1.48593,-4.78974 -1.52828,-4.90922 -0.0423,-0.11948 -0.60617,1.75352 -1.25296,4.16223 -0.64678,2.40872 -1.24931,4.63489 -1.33895,4.94706 l -0.16299,0.56757 h -1.79704 c -1.30135,0 -1.81534,-0.0522 -1.86338,-0.18919 z m 22.98117,0.0292 c -2.08602,-0.27181 -3.79913,-1.64792 -4.46172,-3.58401 -0.2879,-0.84124 -0.34968,-1.33391 -0.34662,-2.76426 0.007,-3.42127 1.02722,-5.22964 3.54663,-6.28857 0.59006,-0.248 1.17165,-0.29351 4.35143,-0.34046 l 3.67034,-0.0542 v 1.14697 1.14698 l -2.91357,5.7e-4 c -1.60246,4.7e-4 -3.15497,0.0679 -3.45002,0.14987 -0.95959,0.26658 -1.80953,1.40896 -1.80953,2.43216 v 0.4442 h 4.08656 4.08656 v 1.13516 1.13515 h -4.17554 -4.17554 l 0.10191,0.64326 c 0.18514,1.16854 0.62598,1.87539 1.4095,2.26001 0.6557,0.32188 0.94352,0.3526 3.77474,0.40302 l 3.06493,0.0546 v 1.11961 1.11962 l -2.91357,-0.0192 c -1.60246,-0.0105 -3.33338,-0.0739 -3.84649,-0.14076 z m 9.48443,-6.42395 v -6.58389 h 1.51354 1.51353 v 6.5839 6.5839 h -1.51353 -1.51354 z"
         id="path1856"
         clip-path="url(#clipPath2174)"
         transform="translate(0.12382707,-24.827328)" /><path
         style="fill:#ff0000;fill-opacity:1;stroke-width:0.151354"
         d="M 49.048908,152.19626 C 47.783783,151.78481 46.63631,150.894 45.757311,149.6409 l -0.637921,-0.90942 2.381472,-0.10153 c 6.423623,-0.27388 9.354101,-0.35182 9.45887,-0.25158 0.15544,0.14873 -3.788715,2.75151 -5.09334,3.36113 -1.070438,0.5002 -2.147195,0.67476 -2.817484,0.45676 z m 21.166698,-0.21673 c -1.074164,-0.4534 -1.915281,-0.94209 -3.861839,-2.24379 -1.420021,-0.94959 -1.829499,-1.28992 -1.691737,-1.40605 0.05223,-0.044 4.29512,0.0924 9.246107,0.29722 l 2.533539,0.10483 -0.263229,0.46426 c -0.442387,0.78025 -2.038358,2.3023 -2.791669,2.66239 -1.083282,0.51782 -2.136117,0.55804 -3.171172,0.12114 z m -23.753184,-4.93174 c -1.661415,-0.53154 -3.26434,-1.91325 -4.084418,-3.52074 -0.482787,-0.94634 -0.784578,-2.51338 -0.694926,-3.60837 0.156406,-1.91033 -0.143217,-1.93235 3.813289,0.2803 5.819487,3.25451 11.423507,6.61667 11.656217,6.9932 0.0547,0.0885 -1.800529,0.13975 -4.877491,0.13471 -4.340781,-0.007 -5.072366,-0.0422 -5.812671,-0.2791 z m 17.941083,0.15014 c 0.23854,-0.38596 9.439626,-5.85638 13.739364,-8.16861 l 1.47088,-0.79098 0.118337,0.42395 c 0.06509,0.23317 0.112917,1.07098 0.106292,1.86181 -0.0092,1.09832 -0.09023,1.63814 -0.343137,2.286 -0.774968,1.98521 -2.481923,3.6383 -4.35388,4.21649 -0.91785,0.2835 -1.395782,0.30844 -5.910591,0.30844 -2.895581,0 -4.877211,-0.0563 -4.827265,-0.1371 z m -8.769719,-2.45818 c -4.496105,-2.4335 -7.287814,-4.25545 -9.117343,-5.95026 -2.81605,-2.60867 -2.80657,-5.65465 0.02888,-9.27847 0.471331,-0.60238 0.88464,-1.09524 0.918466,-1.09524 0.126544,0 2.351885,3.03286 3.770814,5.13914 2.01537,2.99165 3.645612,5.75853 5.407506,9.17774 1.426045,2.76744 1.62798,3.24281 1.375506,3.23803 -0.06243,-10e-4 -1.135155,-0.5551 -2.383825,-1.23094 z m 7.880355,0.89254 c 0.309728,-0.99485 2.948681,-5.92372 4.720352,-8.81636 1.159792,-1.89363 3.837102,-5.81816 4.941179,-7.24304 l 0.921209,-1.18887 0.561493,0.63273 c 0.820241,0.92429 1.609743,2.16408 2.057183,3.23048 0.314762,0.75018 0.394569,1.19246 0.401655,2.22589 0.0079,1.15924 -0.041,1.39093 -0.483917,2.29062 -0.847303,1.72112 -3.213372,3.66866 -7.506563,6.17875 -2.153266,1.25895 -5.432093,3.03035 -5.609101,3.03035 -0.06023,0 -0.0618,-0.15324 -0.0035,-0.34055 z m -4.986483,-2.19463 c -2.787928,-4.30037 -5.017995,-8.50263 -5.880451,-11.0809 -0.428804,-1.28189 -0.483563,-1.63866 -0.488736,-3.18421 -0.0053,-1.59176 0.02917,-1.81183 0.403514,-2.57404 0.814229,-1.65786 2.129234,-2.62268 4.203595,-3.08417 l 1.131793,-0.25179 0.260803,0.34414 c 0.817871,1.07922 1.671052,5.03981 1.955673,9.07853 0.252378,3.58119 -0.09864,12.22814 -0.496397,12.22814 -0.0732,0 -0.563612,-0.66407 -1.089794,-1.4757 z m 3.112153,-0.60542 c -0.561253,-6.71147 -0.249305,-13.08037 0.823554,-16.81413 0.278243,-0.96833 1.049391,-2.74837 1.190651,-2.74837 0.427938,0 2.40974,0.56122 2.959842,0.83819 0.880134,0.44313 1.889276,1.4526 2.338663,2.33942 1.124142,2.21839 0.696414,4.85289 -1.524045,9.38706 -1.498702,3.06033 -5.140118,9.07895 -5.493,9.07895 -0.0669,0 -0.199946,-0.9365 -0.295665,-2.08112 z m 47.270569,1.68474 c -1.91143,-0.17069 -3.28124,-0.7185 -4.18001,-1.67166 -0.9153,-0.97069 -0.94035,-1.13484 -1.00662,-6.59697 l -0.0601,-4.95685 h 1.52607 1.52607 v 4.58423 c 0,4.45561 0.01,4.60293 0.34055,5.25078 0.49332,0.96558 1.18824,1.2787 2.83788,1.2787 1.64965,0 2.34458,-0.31312 2.83789,-1.2787 0.33099,-0.64785 0.34055,-0.79517 0.34055,-5.25078 v -4.58423 h 1.52453 1.52454 l -0.0504,4.95685 c -0.0557,5.48254 -0.08,5.63283 -1.07662,6.67309 -1.11397,1.1627 -3.60779,1.81668 -6.08433,1.59554 z M 88.654184,144.3584 c -0.0555,-0.0555 -0.10091,-3.01825 -0.10091,-6.5839 v -6.483 h 1.51354 1.51354 v 2.6487 2.64869 h 3.32979 3.32979 v -2.64869 -2.6487 h 1.51515 1.515146 l -0.0395,6.54606 -0.0395,6.54606 h -1.437856 -1.43786 l -0.0412,-2.7622 -0.0412,-2.76222 h -3.32637 -3.32638 v 2.80005 2.80005 h -1.41263 c -0.77695,0 -1.45805,-0.0454 -1.51354,-0.1009 z m 28.076156,-0.0224 c 0.0277,-0.0678 1.3751,-3.03059 2.99411,-6.5839 l 2.94366,-6.46056 h 1.61485 1.61484 l 2.9158,6.31903 c 1.60369,3.47546 2.94937,6.44061 2.9904,6.58921 0.0688,0.24903 -0.0522,0.26681 -1.54591,0.22703 l -1.62052,-0.0431 -0.64573,-1.51354 -0.64574,-1.51354 h -3.14242 -3.14243 l -0.55101,1.36357 c -0.30306,0.74996 -0.60612,1.44808 -0.67346,1.55138 -0.13863,0.21263 -3.19297,0.27602 -3.10644,0.0645 z m 9.49191,-5.56064 c 0.0468,-0.0459 -1.89724,-4.73323 -2.02312,-4.87799 -0.0365,-0.0421 -2.04527,4.74946 -2.04527,4.87866 0,0.19253 3.87195,0.19189 4.06839,-5.7e-4 z m 8.5695,5.49478 c -0.0365,-0.10405 -1.09004,-3.04086 -2.34123,-6.52622 -1.2512,-3.48537 -2.2749,-6.36299 -2.2749,-6.39471 0,-0.0318 0.70872,-0.0577 1.57493,-0.0577 h 1.57493 l 1.3156,4.04286 c 0.72357,2.22356 1.45481,4.4882 1.62497,5.03251 0.17387,0.55622 0.34508,0.89023 0.39088,0.76264 0.0448,-0.12487 0.67095,-2.37247 1.39138,-4.99468 l 1.30988,-4.76765 h 1.79715 1.79715 l 1.53955,4.88829 c 0.84675,2.68856 1.56877,4.91751 1.60449,4.95323 0.0357,0.0357 0.74048,-2.18105 1.56614,-4.92613 l 1.5012,-4.99107 h 1.47904 c 1.08842,0 1.47601,0.05 1.4676,0.18919 -0.006,0.10406 -0.97684,3.04979 -2.15679,6.54606 l -2.14536,6.35687 h -1.81087 -1.81086 l -1.45128,-4.69197 c -0.7982,-2.58059 -1.48593,-4.78974 -1.52828,-4.90922 -0.0423,-0.11948 -0.60617,1.75352 -1.25296,4.16223 -0.64678,2.40872 -1.24931,4.63489 -1.33895,4.94706 l -0.16299,0.56757 h -1.79704 c -1.30135,0 -1.81534,-0.0522 -1.86338,-0.18919 z m 22.98117,0.0292 c -2.08602,-0.27181 -3.79913,-1.64792 -4.46172,-3.58401 -0.2879,-0.84124 -0.34968,-1.33391 -0.34662,-2.76426 0.007,-3.42127 1.02722,-5.22964 3.54663,-6.28857 0.59006,-0.248 1.17165,-0.29351 4.35143,-0.34046 l 3.67034,-0.0542 v 1.14697 1.14698 l -2.91357,5.7e-4 c -1.60246,4.7e-4 -3.15497,0.0679 -3.45002,0.14987 -0.95959,0.26658 -1.80953,1.40896 -1.80953,2.43216 v 0.4442 h 4.08656 4.08656 v 1.13516 1.13515 h -4.17554 -4.17554 l 0.10191,0.64326 c 0.18514,1.16854 0.62598,1.87539 1.4095,2.26001 0.6557,0.32188 0.94352,0.3526 3.77474,0.40302 l 3.06493,0.0546 v 1.11961 1.11962 l -2.91357,-0.0192 c -1.60246,-0.0105 -3.33338,-0.0739 -3.84649,-0.14076 z m 9.48443,-6.42395 v -6.58389 h 1.51354 1.51353 v 6.5839 6.5839 h -1.51353 -1.51354 z"
         id="path2178"
         clip-path="url(#clipPath2824)"
         transform="translate(13.837675,-51.326322)" /></g></g></svg>
